<svg xmlns="http://www.w3.org/2000/svg" viewBox="0 0 449.729 449.729"><path d="M447.53 185.044L228.666 5.821a5.999 5.999 0 00-7.603 0L2.199 185.044a6 6 0 107.602 9.284l20.887-17.104v262.042a6 6 0 006 6H413.04a6 6 0 006-6V177.224l20.887 17.104a5.97 5.97 0 003.798 1.358 6 6 0 003.805-10.642zM230.864 289.41l31.761 62.094-31.761 62.094V289.41zm-12 124.188l-31.761-62.094 31.761-62.094v124.188zm-3.418 19.668h-70.163l35.081-68.586 35.082 68.586zm53.918-68.586l35.081 68.586h-70.163l35.082-68.586zm6.74-13.176l31.761-62.094v124.188l-31.761-62.094zm-6.74-13.176l-34.692-67.824h69.383l-34.691 67.824zm-89 0l-34.692-67.824h69.383l-34.691 67.824zm-6.739 13.176l-31.761 62.094V289.41l31.761 62.094zm233.416 81.762h-87.176V270.504h25.5a6 6 0 100-12h-241a6 6 0 100 12h25.5v162.762H42.689V167.397l182.176-149.18 182.176 149.18v265.869z"/><path d="M197.864 89.965v75a6 6 0 006 6h42a6 6 0 006-6v-75a6 6 0 00-6-6h-42a6 6 0 00-6 6zm12 6h30v63h-30v-63z"/></svg>